<?xml version="1.0" standalone="no"?>
<!DOCTYPE svg PUBLIC "-//W3C//DTD SVG 20010904//EN"
 "http://www.w3.org/TR/2001/REC-SVG-20010904/DTD/svg10.dtd">
<svg version="1.0" xmlns="http://www.w3.org/2000/svg"
 width="648.000000pt" height="688.000000pt" viewBox="0 0 648.000000 688.000000"
 preserveAspectRatio="xMidYMid meet">

<g transform="translate(0.000000,688.000000) scale(0.100000,-0.100000)"
fill="#000000" stroke="none">
<path d="M3045 6563 c-145 -84 -228 -170 -289 -298 -47 -97 -60 -161 -54 -264
8 -137 68 -264 186 -391 34 -37 62 -71 62 -75 0 -3 -29 -49 -65 -100 -56 -80
-71 -95 -98 -99 -376 -57 -643 -147 -926 -315 -170 -101 -308 -208 -464 -360
-120 -117 -140 -134 -155 -123 -69 50 -77 53 -129 49 -71 -5 -172 -56 -221
-112 -22 -25 -46 -45 -53 -45 -26 0 -115 -47 -152 -79 -20 -18 -44 -53 -53
-79 -11 -28 -35 -62 -59 -84 -40 -36 -65 -88 -65 -138 0 -12 -13 -38 -30 -57
-24 -27 -30 -43 -30 -82 0 -65 30 -109 97 -141 49 -24 52 -27 53 -63 0 -47 24
-101 55 -125 22 -18 23 -22 18 -144 l-6 -127 -67 6 c-107 9 -176 -24 -211
-101 -23 -50 -24 -82 -3 -142 14 -43 14 -52 -1 -116 -40 -160 31 -306 173
-358 55 -20 60 -25 72 -63 18 -63 96 -208 135 -255 19 -22 35 -44 35 -50 0
-21 104 -262 152 -352 56 -105 162 -273 214 -337 19 -23 34 -46 34 -51 0 -12
34 -42 47 -42 6 0 13 24 17 53 14 122 81 343 147 486 41 88 132 233 167 265
20 18 22 17 54 -7 53 -41 127 -68 205 -75 l72 -7 -60 -90 c-165 -245 -284
-576 -305 -846 -7 -85 -6 -86 21 -107 16 -12 29 -21 31 -19 2 1 8 52 14 112
30 298 128 571 295 820 87 131 102 145 182 178 l62 24 -18 -36 c-22 -43 -111
-267 -111 -278 0 -4 25 34 55 86 42 72 169 265 191 290 2 2 17 -2 33 -8 16 -7
53 -13 83 -13 l53 -1 34 -71 c41 -84 151 -200 222 -234 55 -27 166 -52 230
-52 70 0 144 26 173 61 42 50 35 69 -40 108 -63 33 -165 116 -183 150 -8 14 9
16 177 17 247 1 399 27 522 90 25 12 104 73 175 134 144 125 186 155 262 194
83 42 173 58 293 54 92 -3 111 -6 150 -30 25 -14 57 -39 72 -55 65 -69 129
-211 157 -349 7 -36 30 -81 76 -148 117 -174 212 -385 263 -584 24 -96 27
-125 26 -277 0 -152 -3 -180 -27 -269 -53 -196 -149 -342 -262 -396 -102 -50
-242 -36 -336 32 -41 30 -42 30 -36 81 9 70 -10 283 -33 383 -26 111 -73 232
-111 284 -36 50 -25 49 58 -7 75 -50 161 -130 214 -200 71 -95 74 -85 6 17
-123 184 -304 313 -511 365 -91 23 -91 23 -93 56 -9 113 -41 197 -130 339 -33
52 -65 110 -71 129 -16 46 -15 138 2 197 l15 49 -33 -38 c-43 -48 -60 -110
-54 -192 5 -51 14 -79 47 -137 87 -152 131 -252 143 -325 7 -40 9 -76 5 -80
-4 -3 -55 -6 -113 -5 -95 2 -112 0 -161 -23 -36 -16 -88 -29 -147 -35 -239
-27 -485 -90 -631 -162 -92 -46 -175 -109 -238 -181 -66 -75 -122 -107 -190
-107 -57 0 -112 -21 -150 -58 -42 -39 -57 -75 -57 -132 0 -126 112 -222 241
-207 44 6 46 5 58 -29 19 -52 55 -89 113 -114 45 -19 63 -22 128 -16 76 6 76
6 98 -24 13 -16 41 -39 64 -51 35 -18 55 -21 128 -17 100 5 162 32 194 87 19
33 19 36 2 103 -10 38 -15 72 -11 76 4 4 10 1 13 -7 9 -27 76 -93 113 -112 99
-50 244 -9 335 95 37 42 56 56 77 56 26 0 67 -30 67 -49 0 -19 53 -72 91 -91
27 -14 58 -20 105 -20 56 0 72 -4 100 -25 32 -24 39 -26 146 -23 l113 3 23 45
c12 25 26 45 30 44 4 0 39 -16 77 -35 64 -31 78 -34 160 -34 81 0 97 3 158 32
102 48 174 127 236 256 113 235 137 491 71 765 -11 46 -20 90 -20 98 0 8 25
58 56 110 111 188 193 390 250 610 19 74 34 154 34 177 0 24 4 47 9 52 31 32
38 510 10 650 -6 28 -14 80 -19 117 -20 154 -103 410 -193 598 -91 191 -237
409 -373 559 l-58 63 12 45 c7 24 19 60 27 79 14 34 16 35 47 27 18 -4 87 -8
153 -7 103 0 130 4 193 26 41 15 99 42 130 60 84 49 192 160 235 243 l37 69 0
174 c0 167 -1 174 -26 225 -39 76 -80 124 -132 154 -26 15 -48 27 -50 28 -1 1
10 26 25 56 25 47 28 64 28 144 0 81 -3 95 -30 144 -114 206 -485 262 -821
123 -127 -53 -196 -66 -349 -66 -203 -1 -249 11 -360 94 -49 38 -159 127 -244
199 -222 190 -181 171 -378 170 l-168 -1 -60 -35z m332 -28 c40 -12 86 -44
200 -137 343 -281 514 -388 651 -404 l47 -6 -69 34 -69 34 129 0 c145 1 231
17 356 65 228 88 426 101 595 38 105 -40 173 -132 173 -234 0 -92 -41 -157
-140 -223 -32 -22 -56 -43 -53 -46 11 -11 62 -6 103 10 47 19 79 13 132 -23
88 -60 133 -183 126 -347 -3 -90 -8 -109 -38 -171 -77 -161 -264 -284 -471
-309 -50 -6 -174 6 -187 18 -2 3 6 31 19 63 32 81 100 222 95 198 -19 -86 -19
-90 -3 -76 9 7 29 38 43 70 35 73 44 187 20 258 l-16 48 20 -25 c10 -14 26
-41 33 -60 36 -87 38 -89 33 -29 -6 73 -32 123 -96 183 -89 83 -244 136 -402
136 -104 0 -250 24 -359 59 -51 17 -95 29 -97 27 -7 -7 118 -77 179 -100 84
-31 148 -43 294 -56 178 -15 220 -29 277 -90 31 -34 53 -69 64 -105 l18 -55
-76 -157 c-63 -130 -150 -336 -170 -403 -3 -8 -19 12 -39 50 -44 84 -163 205
-255 259 -200 118 -461 178 -810 188 -337 10 -632 -38 -851 -137 -35 -16 -63
-27 -63 -24 0 8 61 126 102 199 104 181 230 363 332 480 l61 70 -48 -39 c-27
-22 -75 -69 -108 -105 l-60 -66 -51 55 c-115 123 -168 242 -168 379 0 180 118
365 291 456 119 62 213 78 306 50z m533 -1380 c123 -19 232 -45 332 -81 174
-62 345 -196 411 -322 52 -100 54 -119 21 -238 -16 -57 -31 -104 -34 -104 -3
0 -24 33 -47 73 -61 106 -140 196 -238 270 -304 227 -705 289 -1215 187 -161
-32 -347 -84 -466 -130 -43 -16 -80 -28 -82 -25 -3 3 16 47 41 99 l46 95 72
37 c142 71 362 130 579 153 118 13 453 5 580 -14z m-110 -250 c119 -18 222
-47 307 -85 77 -35 216 -126 255 -167 l28 -29 -63 -45 c-70 -51 -136 -139
-161 -216 l-16 -48 79 -240 78 -240 -37 -41 c-48 -53 -84 -115 -109 -191 -31
-92 -26 -95 26 -18 99 148 285 300 448 366 92 37 230 51 275 27 95 -51 104
-227 22 -429 -80 -201 -193 -354 -316 -428 -117 -70 -271 -110 -428 -111 -83
0 -88 1 -105 26 -9 15 -17 47 -17 75 -1 27 -4 49 -7 49 -14 0 -49 -101 -49
-139 0 -38 -3 -42 -47 -64 -189 -95 -459 -154 -738 -164 -157 -5 -162 -5 -280
26 -479 128 -714 286 -828 557 -28 65 -57 193 -57 248 l0 34 75 -24 c42 -13
89 -24 104 -24 75 0 88 -9 111 -72 61 -167 178 -360 252 -414 56 -42 98 -49
150 -27 24 11 61 35 81 53 49 43 143 184 198 298 l44 92 61 0 c80 0 244 17
359 36 112 19 316 64 333 73 31 18 -451 210 -657 262 -186 47 -360 35 -509
-36 -41 -19 -80 -35 -87 -35 -18 0 -93 64 -127 108 -42 56 -38 100 12 145 24
22 61 43 95 52 50 15 62 15 131 1 104 -22 119 -21 144 12 21 25 22 35 17 122
-5 87 -31 204 -54 245 -6 10 -9 -43 -9 -148 1 -91 -2 -168 -5 -171 -16 -16
-39 11 -54 59 -17 60 -53 108 -96 130 -29 16 -96 18 -139 6 -20 -6 -13 -9 32
-13 87 -10 126 -44 141 -125 l7 -33 -59 0 c-69 0 -125 -18 -185 -59 -88 -61
-115 -155 -68 -236 20 -33 21 -37 5 -30 -42 18 -150 45 -180 45 -17 0 -34 4
-38 9 -3 6 27 45 68 88 40 43 90 106 110 140 41 67 136 263 158 326 16 44 17
44 139 -16 47 -23 88 -43 92 -45 3 -2 11 12 17 31 22 65 -24 131 -124 177
l-60 28 40 17 c219 92 577 184 815 208 94 10 314 5 400 -8z m-2205 -369 c59
-39 39 -108 -45 -158 -39 -24 -67 -51 -97 -96 -61 -91 -76 -145 -79 -295 -4
-144 -21 -201 -77 -255 -77 -75 -206 -57 -257 36 l-21 37 5 -62 c4 -56 2 -63
-23 -86 -82 -77 -232 -84 -301 -16 -53 54 -36 81 95 152 51 27 88 54 102 76
13 19 22 36 19 38 -2 2 -24 -6 -50 -17 -26 -11 -51 -20 -56 -20 -13 0 50 60
63 60 7 0 31 9 55 20 l42 19 0 -25 c0 -29 36 -104 50 -104 5 0 2 16 -6 37 -22
52 -11 94 36 137 46 42 74 51 153 51 57 -1 58 0 38 16 -20 17 -20 17 34 58 89
67 98 102 58 219 -14 43 -14 45 12 85 34 50 71 86 110 103 37 17 106 12 140
-10z m-417 -39 c28 -29 89 -156 101 -207 8 -35 6 -42 -18 -66 -57 -58 -150
-101 -181 -84 -9 5 -20 24 -23 42 -11 66 -51 152 -89 194 l-40 43 29 27 c39
37 121 74 164 74 24 0 42 -7 57 -23z m-293 -139 c36 -16 64 -66 91 -165 22
-80 22 -89 8 -110 -32 -50 -141 -97 -169 -73 -19 16 -119 158 -128 183 -16 43
40 116 118 153 59 28 49 27 80 12z m-219 -270 c20 -35 53 -82 71 -105 l34 -43
-26 -10 c-41 -16 -58 -12 -108 21 -52 34 -62 58 -54 120 4 33 30 79 43 79 1 0
19 -28 40 -62z m-118 -158 c18 -29 101 -80 129 -80 31 0 29 -18 -3 -32 -21
-10 -36 -8 -82 7 -49 17 -59 25 -68 54 -11 34 -8 71 5 71 3 0 12 -9 19 -20z
m2093 -265 c38 -34 38 -35 17 -46 -24 -13 -98 -7 -143 11 l-30 12 40 19 c22
11 44 24 49 29 16 16 26 12 67 -25z m-1562 -117 c-8 -56 -8 -89 0 -129 14 -67
31 -97 31 -57 0 28 0 28 48 -20 27 -26 63 -60 80 -76 37 -34 39 -48 11 -75
-23 -22 -145 -64 -237 -81 -63 -13 -246 -9 -260 4 -4 4 -9 98 -10 209 l-4 202
94 0 c105 0 173 23 224 76 15 16 29 27 31 25 2 -1 -2 -37 -8 -78z m1459 6 c37
-7 39 -11 13 -38 -11 -12 -30 -43 -44 -69 l-24 -48 -41 100 c-23 55 -42 102
-42 105 0 3 24 -6 53 -19 28 -14 67 -28 85 -31z m-429 -517 c-79 -59 -112
-170 -87 -283 7 -31 6 -32 -42 -48 -26 -9 -76 -33 -111 -53 -109 -65 -214 -56
-320 28 l-39 31 41 41 c23 23 57 73 74 111 21 43 35 64 40 56 27 -44 171 -65
242 -35 47 20 63 35 130 118 45 56 59 67 84 67 l31 0 -43 -33z m641 -257 c41
-15 99 -33 128 -40 29 -7 52 -14 50 -16 -2 -1 -47 -7 -100 -13 -114 -11 -184
2 -229 45 -28 27 -44 67 -34 84 3 5 29 0 58 -12 29 -11 86 -33 127 -48z
m-1275 -203 c0 -109 1 -116 35 -184 l35 -70 -47 -62 c-54 -70 -138 -209 -138
-229 0 -32 -210 33 -325 101 -126 73 -253 213 -310 340 -43 96 -43 95 17 86
163 -23 396 -2 559 50 72 24 174 71 174 80 0 1 0 -50 0 -112z m2132 -1156
c160 -76 234 -226 232 -475 0 -127 -14 -193 -39 -189 -8 2 -36 8 -62 15 -42
11 -48 16 -48 39 0 32 -35 79 -60 79 -15 0 -17 -5 -10 -35 15 -68 -20 -145
-93 -198 -51 -38 -92 -50 -152 -45 -46 4 -62 10 -90 38 -18 18 -39 45 -45 60
-11 25 -8 35 29 96 44 73 57 118 46 161 -6 27 -7 27 -31 -24 -25 -51 -70 -94
-119 -113 -27 -10 -27 -10 -21 25 12 64 -27 155 -68 155 -11 0 -13 -13 -9 -57
6 -81 -18 -125 -76 -136 -50 -10 -58 -41 -13 -50 15 -3 44 -20 64 -39 30 -26
41 -48 57 -108 26 -94 17 -112 -65 -136 -131 -38 -202 8 -240 156 -40 158 21
338 170 498 34 36 30 40 -17 16 -102 -52 -187 -152 -227 -266 -24 -69 -27
-192 -6 -261 13 -43 13 -46 -8 -51 -85 -23 -156 9 -196 89 -22 44 -25 62 -24
145 4 343 289 543 889 624 146 20 163 19 232 -13z m-1173 -466 c-9 -28 -19
-88 -23 -135 -6 -84 -6 -85 -35 -88 -43 -5 -72 5 -111 39 -96 85 -45 217 85
220 25 1 56 4 70 8 14 4 26 7 27 6 1 0 -5 -23 -13 -50z"/>
<path d="M3650 4814 c-55 -11 -158 -47 -200 -71 -108 -61 -138 -123 -85 -173
33 -31 93 -30 194 5 94 32 217 48 299 39 l65 -7 -5 55 c-5 66 -32 108 -85 133
-36 18 -136 28 -183 19z"/>
<path d="M3541 4450 c-80 -12 -189 -56 -251 -102 -30 -22 -46 -38 -35 -35 11
3 58 17 105 31 122 38 240 51 328 37 90 -14 184 -49 256 -95 31 -20 56 -32 56
-27 0 4 -23 31 -52 60 -63 63 -169 117 -258 131 -72 11 -72 11 -149 0z"/>
<path d="M4675 3650 c-74 -29 -177 -112 -235 -188 -50 -67 -104 -162 -95 -170
2 -2 64 50 136 117 74 68 139 120 148 119 9 -2 20 -15 25 -30 9 -25 -4 -78
-39 -163 -16 -39 40 22 64 70 31 62 37 107 18 144 l-16 31 47 24 c26 13 67 29
90 35 23 7 40 16 37 21 -11 17 -127 10 -180 -10z"/>
<path d="M2950 3108 c-128 -112 -238 -122 -360 -32 -33 24 -60 41 -60 38 0
-14 31 -62 57 -85 119 -111 303 -79 389 67 15 25 25 46 23 48 -2 2 -24 -14
-49 -36z"/>
</g>
</svg>
